<?xml version="1.0" encoding="UTF-8"?><svg xmlns="http://www.w3.org/2000/svg" xmlns:xlink="http://www.w3.org/1999/xlink" stroke-dasharray="none" shape-rendering="auto" font-family="'Dialog'" width="858" text-rendering="auto" fill-opacity="1" contentScriptType="text/ecmascript" color-interpolation="auto" color-rendering="auto" preserveAspectRatio="xMidYMid meet" font-size="12px" viewBox="0 0 858 304" fill="black" stroke="black" image-rendering="auto" stroke-miterlimit="10" zoomAndPan="magnify" version="1.0" stroke-linecap="square" stroke-linejoin="miter" contentStyleType="text/css" font-style="normal" height="304" stroke-width="1" stroke-dashoffset="0" font-weight="normal" stroke-opacity="1">
    <!--Generated by the Batik Graphics2D SVG Generator-->
    <defs id="genericDefs"/>
    <g>
        <defs id="defs1">
            <linearGradient x1="20" x2="20" y1="10" gradientUnits="userSpaceOnUse" y2="294" xlink:type="simple" xlink:actuate="onLoad" id="linearGradient1" xlink:show="other" spreadMethod="pad">
                <stop stop-opacity="1" stop-color="white" offset="0%"/>
                <stop stop-opacity="1" stop-color="rgb(195,209,213)" offset="100%"/>
            </linearGradient>
            <linearGradient x1="21" x2="21" y1="30" gradientUnits="userSpaceOnUse" y2="294" xlink:type="simple" xlink:actuate="onLoad" id="linearGradient2" xlink:show="other" spreadMethod="pad">
                <stop stop-opacity="1" stop-color="white" offset="0%"/>
                <stop stop-opacity="1" stop-color="rgb(195,209,213)" offset="100%"/>
            </linearGradient>
            <linearGradient x1="70" x2="70" y1="50" gradientUnits="userSpaceOnUse" y2="109" xlink:type="simple" xlink:actuate="onLoad" id="linearGradient3" xlink:show="other" spreadMethod="pad">
                <stop stop-opacity="1" stop-color="white" offset="0%"/>
                <stop stop-opacity="1" stop-color="rgb(195,209,213)" offset="100%"/>
            </linearGradient>
            <linearGradient x1="290" x2="290" y1="50" gradientUnits="userSpaceOnUse" y2="111" xlink:type="simple" xlink:actuate="onLoad" id="linearGradient4" xlink:show="other" spreadMethod="pad">
                <stop stop-opacity="1" stop-color="white" offset="0%"/>
                <stop stop-opacity="1" stop-color="rgb(195,209,213)" offset="100%"/>
            </linearGradient>
            <linearGradient x1="620" x2="620" y1="50" gradientUnits="userSpaceOnUse" y2="109" xlink:type="simple" xlink:actuate="onLoad" id="linearGradient5" xlink:show="other" spreadMethod="pad">
                <stop stop-opacity="1" stop-color="white" offset="0%"/>
                <stop stop-opacity="1" stop-color="rgb(195,209,213)" offset="100%"/>
            </linearGradient>
            <linearGradient x1="620" x2="620" y1="130" gradientUnits="userSpaceOnUse" y2="189" xlink:type="simple" xlink:actuate="onLoad" id="linearGradient6" xlink:show="other" spreadMethod="pad">
                <stop stop-opacity="1" stop-color="white" offset="0%"/>
                <stop stop-opacity="1" stop-color="rgb(195,209,213)" offset="100%"/>
            </linearGradient>
            <linearGradient x1="290" x2="290" y1="131" gradientUnits="userSpaceOnUse" y2="190" xlink:type="simple" xlink:actuate="onLoad" id="linearGradient7" xlink:show="other" spreadMethod="pad">
                <stop stop-opacity="1" stop-color="white" offset="0%"/>
                <stop stop-opacity="1" stop-color="rgb(195,209,213)" offset="100%"/>
            </linearGradient>
            <linearGradient x1="70" x2="70" y1="130" gradientUnits="userSpaceOnUse" y2="189" xlink:type="simple" xlink:actuate="onLoad" id="linearGradient8" xlink:show="other" spreadMethod="pad">
                <stop stop-opacity="1" stop-color="white" offset="0%"/>
                <stop stop-opacity="1" stop-color="rgb(195,209,213)" offset="100%"/>
            </linearGradient>
            <linearGradient x1="70" x2="70" y1="210" gradientUnits="userSpaceOnUse" y2="269" xlink:type="simple" xlink:actuate="onLoad" id="linearGradient9" xlink:show="other" spreadMethod="pad">
                <stop stop-opacity="1" stop-color="white" offset="0%"/>
                <stop stop-opacity="1" stop-color="rgb(195,209,213)" offset="100%"/>
            </linearGradient>
            <linearGradient x1="290" x2="290" y1="211" gradientUnits="userSpaceOnUse" y2="270" xlink:type="simple" xlink:actuate="onLoad" id="linearGradient10" xlink:show="other" spreadMethod="pad">
                <stop stop-opacity="1" stop-color="white" offset="0%"/>
                <stop stop-opacity="1" stop-color="rgb(195,209,213)" offset="100%"/>
            </linearGradient>
            <linearGradient x1="620" x2="620" y1="210" gradientUnits="userSpaceOnUse" y2="269" xlink:type="simple" xlink:actuate="onLoad" id="linearGradient11" xlink:show="other" spreadMethod="pad">
                <stop stop-opacity="1" stop-color="white" offset="0%"/>
                <stop stop-opacity="1" stop-color="rgb(195,209,213)" offset="100%"/>
            </linearGradient>
            <linearGradient x1="451" x2="451" y1="210" gradientUnits="userSpaceOnUse" y2="269" xlink:type="simple" xlink:actuate="onLoad" id="linearGradient12" xlink:show="other" spreadMethod="pad">
                <stop stop-opacity="1" stop-color="white" offset="0%"/>
                <stop stop-opacity="1" stop-color="rgb(195,209,213)" offset="100%"/>
            </linearGradient>
            <linearGradient x1="450" x2="450" y1="130" gradientUnits="userSpaceOnUse" y2="189" xlink:type="simple" xlink:actuate="onLoad" id="linearGradient13" xlink:show="other" spreadMethod="pad">
                <stop stop-opacity="1" stop-color="white" offset="0%"/>
                <stop stop-opacity="1" stop-color="rgb(195,209,213)" offset="100%"/>
            </linearGradient>
            <linearGradient x1="10" x2="10" y1="70" gradientUnits="userSpaceOnUse" y2="90" xlink:type="simple" xlink:actuate="onLoad" id="linearGradient14" xlink:show="other" spreadMethod="pad">
                <stop stop-opacity="1" stop-color="white" offset="0%"/>
                <stop stop-opacity="1" stop-color="white" offset="100%"/>
            </linearGradient>
            <linearGradient x1="791" x2="791" y1="229" gradientUnits="userSpaceOnUse" y2="249" xlink:type="simple" xlink:actuate="onLoad" id="linearGradient15" xlink:show="other" spreadMethod="pad">
                <stop stop-opacity="1" stop-color="white" offset="0%"/>
                <stop stop-opacity="1" stop-color="white" offset="100%"/>
            </linearGradient>
            <clipPath clipPathUnits="userSpaceOnUse" id="clipPath1">
                <path d="M30 10 C24.477 10 20 14.477 20 20 L20 20 L20 283 C20 288.523 24.477 293 30 293 C30 293 30 293 30 293 L30 293 L790 293 C795.523 293 800 288.523 800 283 L800 283 L800 20 C800 20 800 20 800 20 C800 14.477 795.523 10 790 10 C790 10 790 10 790 10 L30 10 L30 10 Z"/>
            </clipPath>
            <clipPath clipPathUnits="userSpaceOnUse" id="clipPath2">
                <path d="M360 12 L462 12 L462 29 L360 29 L360 12 Z"/>
            </clipPath>
            <clipPath clipPathUnits="userSpaceOnUse" id="clipPath3">
                <path d="M20 29 L802 29 L802 295 L20 295 L20 29 Z"/>
            </clipPath>
            <clipPath clipPathUnits="userSpaceOnUse" id="clipPath4">
                <path d="M192 50 C192 50 192 50 192 50 L80 50 C74.477 50 70 54.477 70 60 L70 98 C70 103.523 74.477 108 80 108 C80 108 80 108 80 108 L80 108 L192 108 C197.523 108 202 103.523 202 98 L202 98 L202 60 C202 60 202 60 202 60 C202 54.477 197.523 50 192 50 Z"/>
            </clipPath>
            <clipPath clipPathUnits="userSpaceOnUse" id="clipPath5">
                <path d="M71 52 L204 52 L204 69 L71 69 L71 52 Z"/>
            </clipPath>
            <clipPath clipPathUnits="userSpaceOnUse" id="clipPath6">
                <path d="M107 68 L168 68 L168 85 L107 85 L107 68 Z"/>
            </clipPath>
            <clipPath clipPathUnits="userSpaceOnUse" id="clipPath7">
                <path d="M69 49 L204 49 L204 110 L69 110 L69 49 Z"/>
            </clipPath>
            <clipPath clipPathUnits="userSpaceOnUse" id="clipPath8">
                <path d="M412 50 C412 50 412 50 412 50 L300 50 C294.477 50 290 54.477 290 60 L290 60 L290 100 C290 105.523 294.477 110 300 110 C300 110 300 110 300 110 L300 110 L412 110 C417.523 110 422 105.523 422 100 L422 100 L422 60 C422 60 422 60 422 60 C422 54.477 417.523 50 412 50 Z"/>
            </clipPath>
            <clipPath clipPathUnits="userSpaceOnUse" id="clipPath9">
                <path d="M291 52 L424 52 L424 69 L291 69 L291 52 Z"/>
            </clipPath>
            <clipPath clipPathUnits="userSpaceOnUse" id="clipPath10">
                <path d="M327 68 L388 68 L388 85 L327 85 L327 68 Z"/>
            </clipPath>
            <clipPath clipPathUnits="userSpaceOnUse" id="clipPath11">
                <path d="M289 49 L424 49 L424 112 L289 112 L289 49 Z"/>
            </clipPath>
            <clipPath clipPathUnits="userSpaceOnUse" id="clipPath12">
                <path d="M742 50 C742 50 742 50 742 50 L630 50 C624.477 50 620 54.477 620 60 L620 60 L620 98 C620 103.523 624.477 108 630 108 C630 108 630 108 630 108 L630 108 L742 108 C747.523 108 752 103.523 752 98 L752 98 L752 60 C752 60 752 60 752 60 C752 54.477 747.523 50 742 50 Z"/>
            </clipPath>
            <clipPath clipPathUnits="userSpaceOnUse" id="clipPath13">
                <path d="M621 52 L754 52 L754 69 L621 69 L621 52 Z"/>
            </clipPath>
            <clipPath clipPathUnits="userSpaceOnUse" id="clipPath14">
                <path d="M650 68 L724 68 L724 85 L650 85 L650 68 Z"/>
            </clipPath>
            <clipPath clipPathUnits="userSpaceOnUse" id="clipPath15">
                <path d="M619 49 L754 49 L754 110 L619 110 L619 49 Z"/>
            </clipPath>
            <clipPath clipPathUnits="userSpaceOnUse" id="clipPath16">
                <path d="M742 130 C742 130 742 130 742 130 L630 130 C624.477 130 620 134.477 620 140 L620 140 L620 178 C620 183.523 624.477 188 630 188 C630 188 630 188 630 188 L630 188 L742 188 C747.523 188 752 183.523 752 178 L752 178 L752 140 C752 134.477 747.523 130 742 130 Z"/>
            </clipPath>
            <clipPath clipPathUnits="userSpaceOnUse" id="clipPath17">
                <path d="M621 132 L754 132 L754 149 L621 149 L621 132 Z"/>
            </clipPath>
            <clipPath clipPathUnits="userSpaceOnUse" id="clipPath18">
                <path d="M657 148 L718 148 L718 165 L657 165 L657 148 Z"/>
            </clipPath>
            <clipPath clipPathUnits="userSpaceOnUse" id="clipPath19">
                <path d="M619 129 L754 129 L754 190 L619 190 L619 129 Z"/>
            </clipPath>
            <clipPath clipPathUnits="userSpaceOnUse" id="clipPath20">
                <path d="M412 131 C412 131 412 131 412 131 L300 131 C294.477 131 290 135.477 290 141 L290 141 L290 179 C290 184.523 294.477 189 300 189 C300 189 300 189 300 189 L300 189 L412 189 C417.523 189 422 184.523 422 179 L422 179 L422 141 C422 135.477 417.523 131 412 131 Z"/>
            </clipPath>
            <clipPath clipPathUnits="userSpaceOnUse" id="clipPath21">
                <path d="M291 133 L424 133 L424 150 L291 150 L291 133 Z"/>
            </clipPath>
            <clipPath clipPathUnits="userSpaceOnUse" id="clipPath22">
                <path d="M317 149 L398 149 L398 166 L317 166 L317 149 Z"/>
            </clipPath>
            <clipPath clipPathUnits="userSpaceOnUse" id="clipPath23">
                <path d="M289 130 L424 130 L424 191 L289 191 L289 130 Z"/>
            </clipPath>
            <clipPath clipPathUnits="userSpaceOnUse" id="clipPath24">
                <path d="M250 130 C250 130 250 130 250 130 L80 130 C74.477 130 70 134.477 70 140 L70 178 C70 183.523 74.477 188 80 188 C80 188 80 188 80 188 L80 188 L250 188 C255.523 188 260 183.523 260 178 L260 140 C260 134.477 255.523 130 250 130 Z"/>
            </clipPath>
            <clipPath clipPathUnits="userSpaceOnUse" id="clipPath25">
                <path d="M100 132 L233 132 L233 149 L100 149 L100 132 Z"/>
            </clipPath>
            <clipPath clipPathUnits="userSpaceOnUse" id="clipPath26">
                <path d="M76 148 L257 148 L257 165 L76 165 L76 148 Z"/>
            </clipPath>
            <clipPath clipPathUnits="userSpaceOnUse" id="clipPath27">
                <path d="M69 129 L262 129 L262 190 L69 190 L69 129 Z"/>
            </clipPath>
            <clipPath clipPathUnits="userSpaceOnUse" id="clipPath28">
                <path d="M80 210 C74.477 210 70 214.477 70 220 L70 258 C70 263.523 74.477 268 80 268 L261 268 C266.523 268 271 263.523 271 258 L271 220 C271 220 271 220 271 220 C271 214.477 266.523 210 261 210 C261 210 261 210 261 210 L80 210 L80 210 Z"/>
            </clipPath>
            <clipPath clipPathUnits="userSpaceOnUse" id="clipPath29">
                <path d="M105 212 L238 212 L238 229 L105 229 L105 212 Z"/>
            </clipPath>
            <clipPath clipPathUnits="userSpaceOnUse" id="clipPath30">
                <path d="M76 228 L268 228 L268 245 L76 245 L76 228 Z"/>
            </clipPath>
            <clipPath clipPathUnits="userSpaceOnUse" id="clipPath31">
                <path d="M69 209 L273 209 L273 270 L69 270 L69 209 Z"/>
            </clipPath>
            <clipPath clipPathUnits="userSpaceOnUse" id="clipPath32">
                <path d="M300 211 C294.477 211 290 215.477 290 221 L290 221 L290 259 C290 264.523 294.477 269 300 269 L412 269 C417.523 269 422 264.523 422 259 L422 259 L422 221 C422 221 422 221 422 221 C422 215.477 417.523 211 412 211 C412 211 412 211 412 211 L300 211 L300 211 Z"/>
            </clipPath>
            <clipPath clipPathUnits="userSpaceOnUse" id="clipPath33">
                <path d="M291 213 L424 213 L424 230 L291 230 L291 213 Z"/>
            </clipPath>
            <clipPath clipPathUnits="userSpaceOnUse" id="clipPath34">
                <path d="M302 229 L413 229 L413 246 L302 246 L302 229 Z"/>
            </clipPath>
            <clipPath clipPathUnits="userSpaceOnUse" id="clipPath35">
                <path d="M289 210 L424 210 L424 271 L289 271 L289 210 Z"/>
            </clipPath>
            <clipPath clipPathUnits="userSpaceOnUse" id="clipPath36">
                <path d="M630 210 C624.477 210 620 214.477 620 220 L620 220 L620 258 C620 263.523 624.477 268 630 268 L742 268 C747.523 268 752 263.523 752 258 L752 258 L752 220 C752 220 752 220 752 220 C752 214.477 747.523 210 742 210 C742 210 742 210 742 210 L630 210 L630 210 Z"/>
            </clipPath>
            <clipPath clipPathUnits="userSpaceOnUse" id="clipPath37">
                <path d="M621 212 L754 212 L754 229 L621 229 L621 212 Z"/>
            </clipPath>
            <clipPath clipPathUnits="userSpaceOnUse" id="clipPath38">
                <path d="M673 228 L701 228 L701 245 L673 245 L673 228 Z"/>
            </clipPath>
            <clipPath clipPathUnits="userSpaceOnUse" id="clipPath39">
                <path d="M619 209 L754 209 L754 270 L619 270 L619 209 Z"/>
            </clipPath>
            <clipPath clipPathUnits="userSpaceOnUse" id="clipPath40">
                <path d="M461 210 C455.477 210 451 214.477 451 220 L451 220 L451 258 C451 263.523 455.477 268 461 268 L572 268 C577.523 268 582 263.523 582 258 L582 258 L582 220 C582 220 582 220 582 220 C582 214.477 577.523 210 572 210 C572 210 572 210 572 210 L461 210 L461 210 Z"/>
            </clipPath>
            <clipPath clipPathUnits="userSpaceOnUse" id="clipPath41">
                <path d="M451 212 L584 212 L584 229 L451 229 L451 212 Z"/>
            </clipPath>
            <clipPath clipPathUnits="userSpaceOnUse" id="clipPath42">
                <path d="M457 228 L579 228 L579 245 L457 245 L457 228 Z"/>
            </clipPath>
            <clipPath clipPathUnits="userSpaceOnUse" id="clipPath43">
                <path d="M450 209 L584 209 L584 270 L450 270 L450 209 Z"/>
            </clipPath>
            <clipPath clipPathUnits="userSpaceOnUse" id="clipPath44">
                <path d="M572 130 C572 130 572 130 572 130 L460 130 C454.477 130 450 134.477 450 140 L450 140 L450 178 C450 183.523 454.477 188 460 188 C460 188 460 188 460 188 L460 188 L572 188 C577.523 188 582 183.523 582 178 L582 178 L582 140 C582 134.477 577.523 130 572 130 Z"/>
            </clipPath>
            <clipPath clipPathUnits="userSpaceOnUse" id="clipPath45">
                <path d="M451 132 L584 132 L584 149 L451 149 L451 132 Z"/>
            </clipPath>
            <clipPath clipPathUnits="userSpaceOnUse" id="clipPath46">
                <path d="M496 148 L538 148 L538 165 L496 165 L496 148 Z"/>
            </clipPath>
            <clipPath clipPathUnits="userSpaceOnUse" id="clipPath47">
                <path d="M449 129 L584 129 L584 190 L449 190 L449 129 Z"/>
            </clipPath>
            <clipPath clipPathUnits="userSpaceOnUse" id="clipPath48">
                <path d="M20 28 L802 28 L802 295 L20 295 L20 28 Z"/>
            </clipPath>
            <clipPath clipPathUnits="userSpaceOnUse" id="clipPath49">
                <path d="M19 9 L802 9 L802 295 L19 295 L19 9 Z"/>
            </clipPath>
            <clipPath clipPathUnits="userSpaceOnUse" id="clipPath50">
                <path d="M19.5 70 C19.5 70 19.5 70 19.5 70 L19.5 70 L19.5 70 ZM19.5 70 L19 70 L19.488 70 C19.492 70 19.496 70 19.5 70 ZM10 79 L10 79.5 L10 79.5 C10 79.499 10 79.498 10 79.498 C10 79.497 10 79.497 10 79.496 L10 79.496 L10 79 ZM29 79.5 C29 79.5 29 79.5 29 79.5 L29 80 L29 79.5 ZM19.5 70 C19.5 70 19.5 70 19.5 70 L19.488 70 C14.248 70.007 10.002 74.255 10 79.496 L10 79.496 L10 79.498 L10 79.5 C10 84.747 14.253 89 19.5 89 C19.5 89 19.5 89 19.5 89 L19.5 89 L19.5 89 C24.747 89 29 84.747 29 79.5 C29 74.253 24.747 70 19.5 70 ZM19.5 89 C19.5 89 19.5 89 19.5 89 L19.5 89 L19 89 L19.5 89 Z"/>
            </clipPath>
            <clipPath clipPathUnits="userSpaceOnUse" id="clipPath51">
                <path d="M9 69 L31 69 L31 91 L9 91 L9 69 Z"/>
            </clipPath>
            <clipPath clipPathUnits="userSpaceOnUse" id="clipPath52">
                <path d="M19 89 L49 89 L49 106 L19 106 L19 89 Z"/>
            </clipPath>
            <clipPath clipPathUnits="userSpaceOnUse" id="clipPath53">
                <path d="M800.5 229 C800.5 229 800.5 229 800.499 229 L800.499 229 L800.5 229 ZM800.499 229 L800 229 L800.483 229 C800.488 229 800.494 229 800.499 229 ZM791 238 L791 238.498 L791 238.498 C791 238.487 791 238.477 791 238.466 L791 238.466 C791 238.466 791 238.466 791 238.466 L791 238.466 L791 238 ZM810 238.5 C810 238.5 810 238.5 810 238.5 L810 239 L810 238.5 ZM800.5 229 C800.5 229 800.5 229 800.5 229 L800.483 229 C795.255 229.009 791.018 233.24 791 238.466 L791 238.466 L791 238.466 L791 238.5 C791 243.747 795.253 248 800.5 248 C800.5 248 800.5 248 800.5 248 L800.5 248 L800.5 248 C805.747 248 810 243.747 810 238.5 C810 233.253 805.747 229 800.5 229 Z"/>
            </clipPath>
            <clipPath clipPathUnits="userSpaceOnUse" id="clipPath54">
                <path d="M790 228 L812 228 L812 250 L790 250 L790 228 Z"/>
            </clipPath>
            <clipPath clipPathUnits="userSpaceOnUse" id="clipPath55">
                <path d="M815 231 L849 231 L849 248 L815 248 L815 231 Z"/>
            </clipPath>
            <clipPath clipPathUnits="userSpaceOnUse" id="clipPath56">
                <path d="M-1 -1 L859 -1 L859 305 L-1 305 L-1 -1 Z"/>
            </clipPath>
            <clipPath clipPathUnits="userSpaceOnUse" id="clipPath57">
                <path d="M434 214 L440 214 L440 231 L434 231 L434 214 Z"/>
            </clipPath>
            <clipPath clipPathUnits="userSpaceOnUse" id="clipPath58">
                <path d="M434 234 L452 234 L452 247 L434 247 L434 234 Z"/>
            </clipPath>
            <clipPath clipPathUnits="userSpaceOnUse" id="clipPath59">
                <path d="M243 52 L249 52 L249 69 L243 69 L243 52 Z"/>
            </clipPath>
            <clipPath clipPathUnits="userSpaceOnUse" id="clipPath60">
                <path d="M274 74 L292 74 L292 87 L274 87 L274 74 Z"/>
            </clipPath>
            <clipPath clipPathUnits="userSpaceOnUse" id="clipPath61">
                <path d="M272 171 L278 171 L278 188 L272 188 L272 171 Z"/>
            </clipPath>
            <clipPath clipPathUnits="userSpaceOnUse" id="clipPath62">
                <path d="M259 154 L277 154 L277 167 L259 167 L259 154 Z"/>
            </clipPath>
            <clipPath clipPathUnits="userSpaceOnUse" id="clipPath63">
                <path d="M48 54 L54 54 L54 71 L48 71 L48 54 Z"/>
            </clipPath>
            <clipPath clipPathUnits="userSpaceOnUse" id="clipPath64">
                <path d="M54 74 L72 74 L72 87 L54 87 L54 74 Z"/>
            </clipPath>
            <clipPath clipPathUnits="userSpaceOnUse" id="clipPath65">
                <path d="M597 168 L603 168 L603 185 L597 185 L597 168 Z"/>
            </clipPath>
            <clipPath clipPathUnits="userSpaceOnUse" id="clipPath66">
                <path d="M581 152 L599 152 L599 165 L581 165 L581 152 Z"/>
            </clipPath>
            <clipPath clipPathUnits="userSpaceOnUse" id="clipPath67">
                <path d="M769 212 L775 212 L775 229 L769 229 L769 212 Z"/>
            </clipPath>
            <clipPath clipPathUnits="userSpaceOnUse" id="clipPath68">
                <path d="M774 232 L792 232 L792 245 L774 245 L774 232 Z"/>
            </clipPath>
            <clipPath clipPathUnits="userSpaceOnUse" id="clipPath69">
                <path d="M433 169 L439 169 L439 186 L433 186 L433 169 Z"/>
            </clipPath>
            <clipPath clipPathUnits="userSpaceOnUse" id="clipPath70">
                <path d="M421 152 L439 152 L439 165 L421 165 L421 152 Z"/>
            </clipPath>
            <clipPath clipPathUnits="userSpaceOnUse" id="clipPath71">
                <path d="M279 214 L285 214 L285 231 L279 231 L279 214 Z"/>
            </clipPath>
            <clipPath clipPathUnits="userSpaceOnUse" id="clipPath72">
                <path d="M274 234 L292 234 L292 247 L274 247 L274 234 Z"/>
            </clipPath>
            <clipPath clipPathUnits="userSpaceOnUse" id="clipPath73">
                <path d="M186 191 L192 191 L192 208 L186 208 L186 191 Z"/>
            </clipPath>
            <clipPath clipPathUnits="userSpaceOnUse" id="clipPath74">
                <path d="M164 194 L177 194 L177 212 L164 212 L164 194 Z"/>
            </clipPath>
            <clipPath clipPathUnits="userSpaceOnUse" id="clipPath75">
                <path d="M707 111 L713 111 L713 128 L707 128 L707 111 Z"/>
            </clipPath>
            <clipPath clipPathUnits="userSpaceOnUse" id="clipPath76">
                <path d="M684 114 L697 114 L697 132 L684 132 L684 114 Z"/>
            </clipPath>
            <clipPath clipPathUnits="userSpaceOnUse" id="clipPath77">
                <path d="M518 55 L524 55 L524 72 L518 72 L518 55 Z"/>
            </clipPath>
            <clipPath clipPathUnits="userSpaceOnUse" id="clipPath78">
                <path d="M604 76 L622 76 L622 89 L604 89 L604 76 Z"/>
            </clipPath>
            <clipPath clipPathUnits="userSpaceOnUse" id="clipPath79">
                <path d="M596 215 L602 215 L602 232 L596 232 L596 215 Z"/>
            </clipPath>
            <clipPath clipPathUnits="userSpaceOnUse" id="clipPath80">
                <path d="M604 234 L622 234 L622 247 L604 247 L604 234 Z"/>
            </clipPath>
        </defs>
        <g fill="url(#linearGradient1)" stroke-miterlimit="0" stroke-width="0" font-family="'Segoe UI'" stroke="url(#linearGradient1)" stroke-linejoin="round">
            <rect x="20" width="781" height="284" y="10" clip-path="url(#clipPath1)" stroke="none"/>
            <text fill="black" x="361" xml:space="preserve" y="26" clip-path="url(#clipPath2)" stroke="none">Learning Workflow</text>
            <rect x="21" y="30" clip-path="url(#clipPath3)" fill="url(#linearGradient2)" width="781" height="264" stroke="none"/>
            <rect x="70" y="50" clip-path="url(#clipPath4)" fill="url(#linearGradient3)" width="133" height="59" stroke="none"/>
            <text fill="black" x="72" xml:space="preserve" y="66" clip-path="url(#clipPath5)" stroke="none">«ML_Block_Connection»</text>
            <text fill="black" x="108" xml:space="preserve" y="82" clip-path="url(#clipPath6)" stroke="none">Load_CSV1</text>
        </g>
        <g stroke-linecap="butt" font-family="'Segoe UI'" stroke-width="1.1">
            <rect x="70" y="50" clip-path="url(#clipPath7)" fill="none" width="132" rx="10" ry="10" height="58"/>
            <rect x="290" y="50" clip-path="url(#clipPath8)" fill="url(#linearGradient4)" width="133" height="61" stroke="none"/>
            <text x="292" xml:space="preserve" y="66" clip-path="url(#clipPath9)" stroke="none">«ML_Block_Connection»</text>
            <text x="328" xml:space="preserve" y="82" clip-path="url(#clipPath10)" stroke="none">Load_CSV2</text>
            <rect x="290" y="50" clip-path="url(#clipPath11)" fill="none" width="132" rx="10" ry="10" height="60"/>
            <rect x="620" y="50" clip-path="url(#clipPath12)" fill="url(#linearGradient5)" width="133" height="59" stroke="none"/>
            <text x="622" xml:space="preserve" y="66" clip-path="url(#clipPath13)" stroke="none">«ML_Block_Connection»</text>
            <text x="651" xml:space="preserve" y="82" clip-path="url(#clipPath14)" stroke="none">Convert_Date</text>
            <rect x="620" y="50" clip-path="url(#clipPath15)" fill="none" width="132" rx="10" ry="10" height="58"/>
            <rect x="620" y="130" clip-path="url(#clipPath16)" fill="url(#linearGradient6)" width="133" height="59" stroke="none"/>
            <text x="622" xml:space="preserve" y="146" clip-path="url(#clipPath17)" stroke="none">«ML_Block_Connection»</text>
            <text x="658" xml:space="preserve" y="162" clip-path="url(#clipPath18)" stroke="none">Merge_DFs</text>
            <rect x="620" y="130" clip-path="url(#clipPath19)" fill="none" width="132" rx="10" ry="10" height="58"/>
            <rect x="290" y="131" clip-path="url(#clipPath20)" fill="url(#linearGradient7)" width="133" height="59" stroke="none"/>
            <text x="292" xml:space="preserve" y="147" clip-path="url(#clipPath21)" stroke="none">«ML_Block_Connection»</text>
            <text x="318" xml:space="preserve" y="163" clip-path="url(#clipPath22)" stroke="none">SplitInTrainTest</text>
            <rect x="290" y="131" clip-path="url(#clipPath23)" fill="none" width="132" rx="10" ry="10" height="58"/>
            <rect x="70" y="130" clip-path="url(#clipPath24)" fill="url(#linearGradient8)" width="191" height="59" stroke="none"/>
            <text x="101" xml:space="preserve" y="146" clip-path="url(#clipPath25)" stroke="none">«ML_Block_Connection»</text>
            <text x="77" xml:space="preserve" y="162" clip-path="url(#clipPath26)" stroke="none">ML_Model_DecisionTreeRegressor</text>
            <rect x="70" y="130" clip-path="url(#clipPath27)" fill="none" width="190" rx="10" ry="10" height="58"/>
            <rect x="70" y="210" clip-path="url(#clipPath28)" fill="url(#linearGradient9)" width="202" height="59" stroke="none"/>
            <text x="106" xml:space="preserve" y="226" clip-path="url(#clipPath29)" stroke="none">«ML_Block_Connection»</text>
            <text x="77" xml:space="preserve" y="242" clip-path="url(#clipPath30)" stroke="none">ML_Model_RandomForestRegressor</text>
            <rect x="70" y="210" clip-path="url(#clipPath31)" fill="none" width="201" rx="10" ry="10" height="58"/>
            <rect x="290" y="211" clip-path="url(#clipPath32)" fill="url(#linearGradient10)" width="133" height="59" stroke="none"/>
            <text x="292" xml:space="preserve" y="227" clip-path="url(#clipPath33)" stroke="none">«ML_Block_Connection»</text>
            <text x="303" xml:space="preserve" y="243" clip-path="url(#clipPath34)" stroke="none">Predict_DecisionTree</text>
            <rect x="290" y="211" clip-path="url(#clipPath35)" fill="none" width="132" rx="10" ry="10" height="58"/>
            <rect x="620" y="210" clip-path="url(#clipPath36)" fill="url(#linearGradient11)" width="133" height="59" stroke="none"/>
            <text x="622" xml:space="preserve" y="226" clip-path="url(#clipPath37)" stroke="none">«ML_Block_Connection»</text>
            <text x="674" xml:space="preserve" y="242" clip-path="url(#clipPath38)" stroke="none">MAE</text>
            <rect x="620" y="210" clip-path="url(#clipPath39)" fill="none" width="132" rx="10" ry="10" height="58"/>
            <rect x="451" y="210" clip-path="url(#clipPath40)" fill="url(#linearGradient12)" width="132" height="59" stroke="none"/>
            <text x="452" xml:space="preserve" y="226" clip-path="url(#clipPath41)" stroke="none">«ML_Block_Connection»</text>
            <text x="458" xml:space="preserve" y="242" clip-path="url(#clipPath42)" stroke="none">Predict_RandomForest</text>
            <rect x="451" y="210" clip-path="url(#clipPath43)" fill="none" width="131" rx="10" ry="10" height="58"/>
            <rect x="450" y="130" clip-path="url(#clipPath44)" fill="url(#linearGradient13)" width="133" height="59" stroke="none"/>
            <text x="452" xml:space="preserve" y="146" clip-path="url(#clipPath45)" stroke="none">«ML_Block_Connection»</text>
            <text x="497" xml:space="preserve" y="162" clip-path="url(#clipPath46)" stroke="none">Encode</text>
            <rect x="450" y="130" clip-path="url(#clipPath47)" fill="none" width="132" rx="10" ry="10" height="58"/>
            <line y2="29" fill="none" x1="21" clip-path="url(#clipPath48)" x2="802" y1="29"/>
            <rect x="20" y="10" clip-path="url(#clipPath49)" fill="none" width="780" rx="10" ry="10" height="283"/>
            <rect x="10" y="70" clip-path="url(#clipPath50)" fill="url(#linearGradient14)" width="20" height="20" stroke="none"/>
            <rect x="10" y="70" clip-path="url(#clipPath51)" fill="none" width="19" rx="10" ry="10" height="19"/>
            <text x="20" xml:space="preserve" y="103" clip-path="url(#clipPath52)" stroke="none"> Start</text>
            <rect x="791" y="229" clip-path="url(#clipPath53)" fill="url(#linearGradient15)" width="20" height="20" stroke="none"/>
            <rect x="791" y="229" clip-path="url(#clipPath54)" fill="none" width="19" rx="10" ry="10" height="19"/>
            <line y2="245" fill="none" x1="807" clip-path="url(#clipPath54)" x2="794" y1="232"/>
            <line y2="245" fill="none" x1="794" clip-path="url(#clipPath54)" x2="807" y1="232"/>
            <text x="816" xml:space="preserve" y="245" clip-path="url(#clipPath55)" stroke="none"> Done</text>
            <line clip-path="url(#clipPath56)" fill="none" text-rendering="optimizeLegibility" x1="422" x2="450" y1="240" y2="240"/>
            <text text-rendering="optimizeLegibility" x="435" xml:space="preserve" y="228" clip-path="url(#clipPath57)" stroke="none"> </text>
            <line clip-path="url(#clipPath58)" fill="none" text-rendering="optimizeLegibility" x1="435" x2="450" y1="245" y2="240"/>
            <line clip-path="url(#clipPath58)" fill="none" text-rendering="optimizeLegibility" x1="450" x2="435" y1="240" y2="235"/>
            <line clip-path="url(#clipPath56)" fill="none" text-rendering="optimizeLegibility" x1="202" x2="290" y1="80" y2="80"/>
            <text text-rendering="optimizeLegibility" x="244" xml:space="preserve" y="66" clip-path="url(#clipPath59)" stroke="none"> </text>
            <line clip-path="url(#clipPath60)" fill="none" text-rendering="optimizeLegibility" x1="275" x2="290" y1="85" y2="80"/>
            <line clip-path="url(#clipPath60)" fill="none" text-rendering="optimizeLegibility" x1="290" x2="275" y1="80" y2="75"/>
            <line clip-path="url(#clipPath56)" fill="none" text-rendering="optimizeLegibility" x1="290" x2="260" y1="160" y2="160"/>
            <text text-rendering="optimizeLegibility" x="273" xml:space="preserve" y="185" clip-path="url(#clipPath61)" stroke="none"> </text>
            <line clip-path="url(#clipPath62)" fill="none" text-rendering="optimizeLegibility" x1="275" x2="260" y1="155" y2="160"/>
            <line clip-path="url(#clipPath62)" fill="none" text-rendering="optimizeLegibility" x1="260" x2="275" y1="160" y2="165"/>
            <line clip-path="url(#clipPath56)" fill="none" text-rendering="optimizeLegibility" x1="30" x2="70" y1="80" y2="80"/>
            <text text-rendering="optimizeLegibility" x="49" xml:space="preserve" y="68" clip-path="url(#clipPath63)" stroke="none"> </text>
            <line clip-path="url(#clipPath64)" fill="none" text-rendering="optimizeLegibility" x1="55" x2="70" y1="85" y2="80"/>
            <line clip-path="url(#clipPath64)" fill="none" text-rendering="optimizeLegibility" x1="70" x2="55" y1="80" y2="75"/>
            <line clip-path="url(#clipPath56)" fill="none" text-rendering="optimizeLegibility" x1="620" x2="582" y1="158" y2="158"/>
            <text text-rendering="optimizeLegibility" x="598" xml:space="preserve" y="182" clip-path="url(#clipPath65)" stroke="none"> </text>
            <line clip-path="url(#clipPath66)" fill="none" text-rendering="optimizeLegibility" x1="597" x2="582" y1="153" y2="158"/>
            <line clip-path="url(#clipPath66)" fill="none" text-rendering="optimizeLegibility" x1="582" x2="597" y1="158" y2="163"/>
            <line clip-path="url(#clipPath56)" fill="none" text-rendering="optimizeLegibility" x1="752" x2="790" y1="238" y2="238"/>
            <text text-rendering="optimizeLegibility" x="770" xml:space="preserve" y="226" clip-path="url(#clipPath67)" stroke="none"> </text>
            <line clip-path="url(#clipPath68)" fill="none" text-rendering="optimizeLegibility" x1="775" x2="790" y1="243" y2="238"/>
            <line clip-path="url(#clipPath68)" fill="none" text-rendering="optimizeLegibility" x1="790" x2="775" y1="238" y2="233"/>
            <line clip-path="url(#clipPath56)" fill="none" text-rendering="optimizeLegibility" x1="450" x2="422" y1="158" y2="159"/>
            <text text-rendering="optimizeLegibility" x="434" xml:space="preserve" y="183" clip-path="url(#clipPath69)" stroke="none"> </text>
            <line clip-path="url(#clipPath70)" fill="none" text-rendering="optimizeLegibility" x1="437" x2="422" y1="153" y2="159"/>
            <line clip-path="url(#clipPath70)" fill="none" text-rendering="optimizeLegibility" x1="422" x2="437" y1="159" y2="163"/>
            <line clip-path="url(#clipPath56)" fill="none" text-rendering="optimizeLegibility" x1="272" x2="290" y1="240" y2="240"/>
            <text text-rendering="optimizeLegibility" x="280" xml:space="preserve" y="228" clip-path="url(#clipPath71)" stroke="none"> </text>
            <line clip-path="url(#clipPath72)" fill="none" text-rendering="optimizeLegibility" x1="275" x2="290" y1="245" y2="240"/>
            <line clip-path="url(#clipPath72)" fill="none" text-rendering="optimizeLegibility" x1="290" x2="275" y1="240" y2="235"/>
            <line clip-path="url(#clipPath56)" fill="none" text-rendering="optimizeLegibility" x1="170" x2="170" y1="188" y2="210"/>
            <text text-rendering="optimizeLegibility" x="187" xml:space="preserve" y="205" clip-path="url(#clipPath73)" stroke="none"> </text>
            <line clip-path="url(#clipPath74)" fill="none" text-rendering="optimizeLegibility" x1="165" x2="170" y1="195" y2="210"/>
            <line clip-path="url(#clipPath74)" fill="none" text-rendering="optimizeLegibility" x1="170" x2="175" y1="210" y2="195"/>
            <line clip-path="url(#clipPath56)" fill="none" text-rendering="optimizeLegibility" x1="690" x2="690" y1="108" y2="130"/>
            <text text-rendering="optimizeLegibility" x="708" xml:space="preserve" y="125" clip-path="url(#clipPath75)" stroke="none"> </text>
            <line clip-path="url(#clipPath76)" fill="none" text-rendering="optimizeLegibility" x1="685" x2="690" y1="115" y2="130"/>
            <line clip-path="url(#clipPath76)" fill="none" text-rendering="optimizeLegibility" x1="690" x2="695" y1="130" y2="115"/>
            <line clip-path="url(#clipPath56)" fill="none" text-rendering="optimizeLegibility" x1="422" x2="620" y1="80" y2="82"/>
            <text text-rendering="optimizeLegibility" x="519" xml:space="preserve" y="69" clip-path="url(#clipPath77)" stroke="none"> </text>
            <line clip-path="url(#clipPath78)" fill="none" text-rendering="optimizeLegibility" x1="605" x2="620" y1="87" y2="82"/>
            <line clip-path="url(#clipPath78)" fill="none" text-rendering="optimizeLegibility" x1="620" x2="605" y1="82" y2="77"/>
            <line clip-path="url(#clipPath56)" fill="none" text-rendering="optimizeLegibility" x1="582" x2="620" y1="240" y2="240"/>
            <text text-rendering="optimizeLegibility" x="597" xml:space="preserve" y="229" clip-path="url(#clipPath79)" stroke="none"> </text>
            <line clip-path="url(#clipPath80)" fill="none" text-rendering="optimizeLegibility" x1="605" x2="620" y1="245" y2="240"/>
            <line clip-path="url(#clipPath80)" fill="none" text-rendering="optimizeLegibility" x1="620" x2="605" y1="240" y2="235"/>
            <line clip-path="url(#clipPath56)" fill="none" text-rendering="optimizeLegibility" x1="30" x2="70" y1="80" y2="80"/>
            <text text-rendering="optimizeLegibility" x="49" xml:space="preserve" y="68" clip-path="url(#clipPath63)" stroke="none"> </text>
            <line clip-path="url(#clipPath64)" fill="none" text-rendering="optimizeLegibility" x1="55" x2="70" y1="85" y2="80"/>
            <line clip-path="url(#clipPath64)" fill="none" text-rendering="optimizeLegibility" x1="70" x2="55" y1="80" y2="75"/>
            <line clip-path="url(#clipPath56)" fill="none" text-rendering="optimizeLegibility" x1="202" x2="290" y1="80" y2="80"/>
            <text text-rendering="optimizeLegibility" x="244" xml:space="preserve" y="66" clip-path="url(#clipPath59)" stroke="none"> </text>
            <line clip-path="url(#clipPath60)" fill="none" text-rendering="optimizeLegibility" x1="275" x2="290" y1="85" y2="80"/>
            <line clip-path="url(#clipPath60)" fill="none" text-rendering="optimizeLegibility" x1="290" x2="275" y1="80" y2="75"/>
            <line clip-path="url(#clipPath56)" fill="none" text-rendering="optimizeLegibility" x1="422" x2="620" y1="80" y2="82"/>
            <text text-rendering="optimizeLegibility" x="519" xml:space="preserve" y="69" clip-path="url(#clipPath77)" stroke="none"> </text>
            <line clip-path="url(#clipPath78)" fill="none" text-rendering="optimizeLegibility" x1="605" x2="620" y1="87" y2="82"/>
            <line clip-path="url(#clipPath78)" fill="none" text-rendering="optimizeLegibility" x1="620" x2="605" y1="82" y2="77"/>
            <line clip-path="url(#clipPath56)" fill="none" text-rendering="optimizeLegibility" x1="690" x2="690" y1="108" y2="130"/>
            <text text-rendering="optimizeLegibility" x="708" xml:space="preserve" y="125" clip-path="url(#clipPath75)" stroke="none"> </text>
            <line clip-path="url(#clipPath76)" fill="none" text-rendering="optimizeLegibility" x1="685" x2="690" y1="115" y2="130"/>
            <line clip-path="url(#clipPath76)" fill="none" text-rendering="optimizeLegibility" x1="690" x2="695" y1="130" y2="115"/>
            <line clip-path="url(#clipPath56)" fill="none" text-rendering="optimizeLegibility" x1="620" x2="582" y1="158" y2="158"/>
            <text text-rendering="optimizeLegibility" x="598" xml:space="preserve" y="182" clip-path="url(#clipPath65)" stroke="none"> </text>
            <line clip-path="url(#clipPath66)" fill="none" text-rendering="optimizeLegibility" x1="597" x2="582" y1="153" y2="158"/>
            <line clip-path="url(#clipPath66)" fill="none" text-rendering="optimizeLegibility" x1="582" x2="597" y1="158" y2="163"/>
            <line clip-path="url(#clipPath56)" fill="none" text-rendering="optimizeLegibility" x1="290" x2="260" y1="160" y2="160"/>
            <text text-rendering="optimizeLegibility" x="273" xml:space="preserve" y="185" clip-path="url(#clipPath61)" stroke="none"> </text>
            <line clip-path="url(#clipPath62)" fill="none" text-rendering="optimizeLegibility" x1="275" x2="260" y1="155" y2="160"/>
            <line clip-path="url(#clipPath62)" fill="none" text-rendering="optimizeLegibility" x1="260" x2="275" y1="160" y2="165"/>
            <line clip-path="url(#clipPath56)" fill="none" text-rendering="optimizeLegibility" x1="170" x2="170" y1="188" y2="210"/>
            <text text-rendering="optimizeLegibility" x="187" xml:space="preserve" y="205" clip-path="url(#clipPath73)" stroke="none"> </text>
            <line clip-path="url(#clipPath74)" fill="none" text-rendering="optimizeLegibility" x1="165" x2="170" y1="195" y2="210"/>
            <line clip-path="url(#clipPath74)" fill="none" text-rendering="optimizeLegibility" x1="170" x2="175" y1="210" y2="195"/>
            <line clip-path="url(#clipPath56)" fill="none" text-rendering="optimizeLegibility" x1="272" x2="290" y1="240" y2="240"/>
            <text text-rendering="optimizeLegibility" x="280" xml:space="preserve" y="228" clip-path="url(#clipPath71)" stroke="none"> </text>
            <line clip-path="url(#clipPath72)" fill="none" text-rendering="optimizeLegibility" x1="275" x2="290" y1="245" y2="240"/>
            <line clip-path="url(#clipPath72)" fill="none" text-rendering="optimizeLegibility" x1="290" x2="275" y1="240" y2="235"/>
            <line clip-path="url(#clipPath56)" fill="none" text-rendering="optimizeLegibility" x1="422" x2="450" y1="240" y2="240"/>
            <text text-rendering="optimizeLegibility" x="435" xml:space="preserve" y="228" clip-path="url(#clipPath57)" stroke="none"> </text>
            <line clip-path="url(#clipPath58)" fill="none" text-rendering="optimizeLegibility" x1="435" x2="450" y1="245" y2="240"/>
            <line clip-path="url(#clipPath58)" fill="none" text-rendering="optimizeLegibility" x1="450" x2="435" y1="240" y2="235"/>
            <line clip-path="url(#clipPath56)" fill="none" text-rendering="optimizeLegibility" x1="582" x2="620" y1="240" y2="240"/>
            <text text-rendering="optimizeLegibility" x="597" xml:space="preserve" y="229" clip-path="url(#clipPath79)" stroke="none"> </text>
            <line clip-path="url(#clipPath80)" fill="none" text-rendering="optimizeLegibility" x1="605" x2="620" y1="245" y2="240"/>
            <line clip-path="url(#clipPath80)" fill="none" text-rendering="optimizeLegibility" x1="620" x2="605" y1="240" y2="235"/>
            <line clip-path="url(#clipPath56)" fill="none" text-rendering="optimizeLegibility" x1="752" x2="790" y1="238" y2="238"/>
            <text text-rendering="optimizeLegibility" x="770" xml:space="preserve" y="226" clip-path="url(#clipPath67)" stroke="none"> </text>
            <line clip-path="url(#clipPath68)" fill="none" text-rendering="optimizeLegibility" x1="775" x2="790" y1="243" y2="238"/>
            <line clip-path="url(#clipPath68)" fill="none" text-rendering="optimizeLegibility" x1="790" x2="775" y1="238" y2="233"/>
            <line clip-path="url(#clipPath56)" fill="none" text-rendering="optimizeLegibility" x1="450" x2="422" y1="158" y2="159"/>
            <text text-rendering="optimizeLegibility" x="434" xml:space="preserve" y="183" clip-path="url(#clipPath69)" stroke="none"> </text>
            <line clip-path="url(#clipPath70)" fill="none" text-rendering="optimizeLegibility" x1="437" x2="422" y1="153" y2="159"/>
            <line clip-path="url(#clipPath70)" fill="none" text-rendering="optimizeLegibility" x1="422" x2="437" y1="159" y2="163"/>
        </g>
    </g>
</svg>
